<svg width="2087" height="703" viewBox="0 0 2087 703" fill="none" xmlns="http://www.w3.org/2000/svg">
<path d="M0 0H310V703H0V0Z" fill="#FD4B3C" fill-opacity="0.85"/>
<path d="M254 0H587.751C665.055 0 733.62 14.3948 793.446 43.1843C853.272 71.9738 899.655 112.815 932.593 165.707C965.531 218.6 982 280.53 982 351.5C982 422.47 965.531 484.4 932.593 537.293C899.655 590.185 853.272 631.026 793.446 659.816C733.62 688.605 665.055 703 587.751 703H254V0Z" fill="#FEBC36" fill-opacity="0.85"/>
<path d="M1569 352.755C1569 354.429 1567.74 374.096 1565.23 411.757H1230.12V703C1150.63 703 1080.77 687.936 1020.52 657.807C960.276 627.679 913.418 585.833 879.949 532.271C847.316 478.709 831 418.034 831 350.245C831 283.292 846.898 223.454 878.694 170.729C911.327 117.167 956.092 75.3214 1012.99 45.1928C1069.89 15.0643 1133.9 0 1205.02 0C1272.8 0 1334.3 14.2274 1389.52 42.6821C1444.74 70.3 1488.26 110.89 1520.05 164.452C1552.68 217.177 1569 279.945 1569 352.755Z" fill="#48C8C0" fill-opacity="0.85"/>
<path d="M1674.99 703H1267L1676.5 0L2087 703H1674.99Z" fill="#7ABD5B" fill-opacity="0.85"/>
<path d="M1535.92 665.196C1533.56 665.196 1531.5 664.78 1529.73 663.948C1527.96 663.081 1526.61 661.92 1525.67 660.464C1524.77 659.008 1524.32 657.379 1524.32 655.576C1524.32 653.531 1524.84 651.659 1525.88 649.96C1526.92 648.261 1528.58 646.597 1530.87 644.968C1529.45 643.235 1528.44 641.657 1527.86 640.236C1527.27 638.78 1526.97 637.411 1526.97 636.128C1526.97 634.36 1527.39 632.817 1528.22 631.5C1529.05 630.183 1530.16 629.177 1531.55 628.484C1532.97 627.791 1534.53 627.444 1536.23 627.444C1539.07 627.444 1541.2 628.103 1542.62 629.42C1544.08 630.737 1544.81 632.471 1544.81 634.62C1544.81 636.665 1544.06 638.485 1542.57 640.08C1541.08 641.675 1538.9 643.477 1536.02 645.488L1545.9 655.628C1546.56 654.831 1547.03 653.444 1547.3 651.468C1547.62 649.492 1547.82 647.585 1547.93 645.748H1552.14C1551.97 651.156 1550.84 655.507 1548.76 658.8L1553.28 664H1548.5L1546.21 661.608C1544.62 662.925 1543.02 663.844 1541.43 664.364C1539.87 664.919 1538.03 665.196 1535.92 665.196ZM1534.04 642.888C1536.47 641.189 1538.17 639.803 1539.14 638.728C1540.11 637.653 1540.6 636.388 1540.6 634.932C1540.6 633.684 1540.2 632.731 1539.4 632.072C1538.6 631.379 1537.53 631.032 1536.18 631.032C1534.79 631.032 1533.61 631.483 1532.64 632.384C1531.67 633.285 1531.18 634.568 1531.18 636.232C1531.18 638.347 1532.14 640.565 1534.04 642.888ZM1536.02 661.66C1539.35 661.66 1541.96 660.62 1543.87 658.54L1533.06 647.724C1531.77 648.625 1530.75 649.735 1529.99 651.052C1529.22 652.335 1528.84 653.721 1528.84 655.212C1528.84 657.084 1529.45 658.627 1530.66 659.84C1531.88 661.053 1533.66 661.66 1536.02 661.66ZM1588.9 654.172H1574.96L1571.48 664H1566.28L1579.33 627.6H1584.53L1597.58 664H1592.38L1588.9 654.172ZM1587.34 649.7L1581.93 634.516L1576.52 649.7H1587.34ZM1612.27 664.52C1609.5 664.52 1607.11 663.948 1605.1 662.804C1603.12 661.66 1601.63 660.1 1600.62 658.124C1599.62 656.113 1599.12 653.877 1599.12 651.416C1599.12 647.395 1600.24 644.153 1602.5 641.692C1604.78 639.231 1608.16 638 1612.64 638C1615.27 638 1617.59 638.503 1619.6 639.508L1618.88 643.616C1616.76 642.645 1614.65 642.16 1612.53 642.16C1609.76 642.16 1607.63 642.957 1606.14 644.552C1604.65 646.112 1603.9 648.331 1603.9 651.208C1603.9 654.085 1604.61 656.339 1606.03 657.968C1607.49 659.597 1609.62 660.412 1612.43 660.412C1614.68 660.412 1616.85 659.892 1618.93 658.852L1619.55 662.596C1618.79 663.116 1617.73 663.567 1616.38 663.948C1615.06 664.329 1613.69 664.52 1612.27 664.52ZM1635.53 664.52C1632.76 664.52 1630.36 663.948 1628.35 662.804C1626.38 661.66 1624.89 660.1 1623.88 658.124C1622.88 656.113 1622.37 653.877 1622.37 651.416C1622.37 647.395 1623.5 644.153 1625.75 641.692C1628.04 639.231 1631.42 638 1635.89 638C1638.53 638 1640.85 638.503 1642.86 639.508L1642.13 643.616C1640.02 642.645 1637.9 642.16 1635.79 642.16C1633.02 642.16 1630.88 642.957 1629.39 644.552C1627.9 646.112 1627.16 648.331 1627.16 651.208C1627.16 654.085 1627.87 656.339 1629.29 657.968C1630.75 659.597 1632.88 660.412 1635.69 660.412C1637.94 660.412 1640.11 659.892 1642.19 658.852L1642.81 662.596C1642.05 663.116 1640.99 663.567 1639.64 663.948C1638.32 664.329 1636.95 664.52 1635.53 664.52ZM1659.31 664.52C1656.4 664.52 1653.9 663.931 1651.82 662.752C1649.77 661.539 1648.21 659.909 1647.14 657.864C1646.07 655.819 1645.53 653.548 1645.53 651.052C1645.53 648.66 1646.01 646.476 1646.98 644.5C1647.99 642.489 1649.43 640.912 1651.3 639.768C1653.21 638.589 1655.44 638 1658.01 638C1661.27 638 1663.9 638.953 1665.91 640.86C1667.96 642.767 1668.98 645.401 1668.98 648.764C1668.98 649.631 1668.91 650.463 1668.77 651.26H1650.31C1650.62 654.553 1651.63 656.893 1653.33 658.28C1655.03 659.667 1657.21 660.36 1659.88 660.36C1662.55 660.36 1664.99 659.857 1667.21 658.852L1667.84 662.544C1664.89 663.861 1662.05 664.52 1659.31 664.52ZM1664.14 648.036C1664.14 646.199 1663.62 644.76 1662.58 643.72C1661.54 642.68 1659.98 642.16 1657.9 642.16C1655.89 642.16 1654.32 642.663 1653.17 643.668C1652.03 644.639 1651.21 646.095 1650.73 648.036H1664.14ZM1680.93 664.52C1678.91 664.52 1677.15 664.295 1675.62 663.844C1674.13 663.359 1672.99 662.839 1672.19 662.284L1672.76 657.76C1673.45 658.384 1674.51 658.973 1675.93 659.528C1677.39 660.083 1678.98 660.36 1680.72 660.36C1682.35 660.36 1683.59 660.083 1684.46 659.528C1685.36 658.973 1685.81 658.193 1685.81 657.188C1685.81 656.009 1685.33 655.125 1684.36 654.536C1683.39 653.912 1682.17 653.392 1680.72 652.976C1679.12 652.56 1677.77 652.127 1676.66 651.676C1675.59 651.191 1674.65 650.463 1673.85 649.492C1673.09 648.521 1672.71 647.239 1672.71 645.644C1672.71 643.46 1673.49 641.64 1675.05 640.184C1676.61 638.728 1679.02 638 1682.28 638C1683.77 638 1685.03 638.156 1686.07 638.468C1687.11 638.745 1688.15 639.144 1689.19 639.664L1688.62 643.928C1687.79 643.235 1686.87 642.697 1685.87 642.316C1684.86 641.9 1683.7 641.692 1682.38 641.692C1680.86 641.692 1679.64 641.987 1678.74 642.576C1677.87 643.131 1677.44 643.98 1677.44 645.124C1677.44 645.887 1677.65 646.511 1678.07 646.996C1678.48 647.447 1679.07 647.828 1679.83 648.14C1680.6 648.452 1681.77 648.851 1683.37 649.336C1685.35 649.925 1687.04 650.757 1688.47 651.832C1689.92 652.907 1690.65 654.605 1690.65 656.928C1690.65 659.008 1689.9 660.793 1688.41 662.284C1686.96 663.775 1684.46 664.52 1680.93 664.52ZM1702.46 664.52C1700.45 664.52 1698.68 664.295 1697.15 663.844C1695.66 663.359 1694.52 662.839 1693.72 662.284L1694.29 657.76C1694.99 658.384 1696.04 658.973 1697.46 659.528C1698.92 660.083 1700.52 660.36 1702.25 660.36C1703.88 660.36 1705.13 660.083 1705.99 659.528C1706.89 658.973 1707.34 658.193 1707.34 657.188C1707.34 656.009 1706.86 655.125 1705.89 654.536C1704.92 653.912 1703.7 653.392 1702.25 652.976C1700.65 652.56 1699.3 652.127 1698.19 651.676C1697.12 651.191 1696.18 650.463 1695.38 649.492C1694.62 648.521 1694.24 647.239 1694.24 645.644C1694.24 643.46 1695.02 641.64 1696.58 640.184C1698.14 638.728 1700.55 638 1703.81 638C1705.3 638 1706.56 638.156 1707.6 638.468C1708.64 638.745 1709.68 639.144 1710.72 639.664L1710.15 643.928C1709.32 643.235 1708.4 642.697 1707.4 642.316C1706.39 641.9 1705.23 641.692 1703.91 641.692C1702.39 641.692 1701.17 641.987 1700.27 642.576C1699.41 643.131 1698.97 643.98 1698.97 645.124C1698.97 645.887 1699.18 646.511 1699.6 646.996C1700.01 647.447 1700.6 647.828 1701.36 648.14C1702.13 648.452 1703.31 648.851 1704.9 649.336C1706.88 649.925 1708.58 650.757 1710 651.832C1711.45 652.907 1712.18 654.605 1712.18 656.928C1712.18 659.008 1711.44 660.793 1709.94 662.284C1708.49 663.775 1705.99 664.52 1702.46 664.52ZM1716.76 627.6H1721.44V632.8H1716.76V627.6ZM1716.76 638.52H1721.44V664H1716.76V638.52ZM1740.31 638C1742.6 638 1744.61 638.607 1746.34 639.82C1748.11 641.033 1749.46 642.663 1750.4 644.708C1751.34 646.719 1751.8 648.903 1751.8 651.26C1751.8 653.687 1751.28 655.923 1750.24 657.968C1749.24 659.979 1747.85 661.573 1746.08 662.752C1744.35 663.931 1742.43 664.52 1740.31 664.52C1738.75 664.52 1737.24 664.208 1735.79 663.584C1734.33 662.925 1733.2 662.024 1732.41 660.88L1731.89 664H1727.73V625H1732.41V641.484C1733.34 640.409 1734.5 639.56 1735.89 638.936C1737.31 638.312 1738.79 638 1740.31 638ZM1739.74 660.36C1741.92 660.36 1743.67 659.493 1744.99 657.76C1746.34 655.992 1747.02 653.825 1747.02 651.26C1747.02 648.625 1746.34 646.459 1744.99 644.76C1743.67 643.027 1741.92 642.16 1739.74 642.16C1737.59 642.16 1735.79 642.957 1734.33 644.552C1732.88 646.112 1732.15 648.348 1732.15 651.26C1732.15 654.276 1732.86 656.547 1734.28 658.072C1735.74 659.597 1737.56 660.36 1739.74 660.36ZM1756.62 627.6H1761.3V632.8H1756.62V627.6ZM1756.62 638.52H1761.3V664H1756.62V638.52ZM1774.19 664.52C1771.91 664.52 1770.23 663.931 1769.15 662.752C1768.11 661.573 1767.59 660.117 1767.59 658.384V625H1772.27V655.68C1772.27 657.205 1772.36 658.315 1772.53 659.008C1772.74 659.701 1773.12 660.169 1773.67 660.412C1774.23 660.655 1775.13 660.776 1776.38 660.776L1775.7 664.52H1774.19ZM1779.93 627.6H1784.61V632.8H1779.93V627.6ZM1779.93 638.52H1784.61V664H1779.93V638.52ZM1799.74 664.52C1797.49 664.52 1795.8 663.931 1794.7 662.752C1793.62 661.573 1793.08 660.135 1793.08 658.436V642.16H1788.72L1789.13 638.52H1793.08V632.228L1797.76 631.76V638.52H1804.47V642.16H1797.76V655.576C1797.76 657.344 1797.87 658.557 1798.08 659.216C1798.28 659.875 1798.72 660.308 1799.38 660.516C1800.07 660.689 1801.32 660.776 1803.12 660.776H1804.32L1803.95 664.52H1799.74ZM1816.27 662.856L1805.66 638.52H1810.86L1818.82 657.448L1825.99 638.52H1831.19L1815.59 676.584H1810.39L1816.27 662.856Z" fill="black"/>
<path d="M1232.16 337.6H1254.36V342.072H1237.1V352.732H1250.83V357.204H1237.1V369.528H1254.83V374H1232.16V337.6ZM1281.77 348.52V386.584H1277.09V370.932C1276.26 372.111 1275.15 373.012 1273.76 373.636C1272.38 374.225 1270.82 374.52 1269.08 374.52C1266.66 374.52 1264.58 373.948 1262.84 372.804C1261.15 371.625 1259.86 370.048 1259 368.072C1258.13 366.061 1257.7 363.791 1257.7 361.26C1257.7 358.903 1258.15 356.719 1259.05 354.708C1259.98 352.663 1261.3 351.033 1263 349.82C1264.73 348.607 1266.74 348 1269.03 348C1271.01 348 1272.67 348.329 1274.02 348.988C1275.38 349.647 1276.57 350.652 1277.61 352.004L1278.13 348.52H1281.77ZM1269.71 370.36C1271.96 370.36 1273.8 369.615 1275.22 368.124C1276.64 366.599 1277.35 364.311 1277.35 361.26C1277.35 358.313 1276.62 356.06 1275.17 354.5C1273.75 352.94 1271.93 352.16 1269.71 352.16C1267.46 352.16 1265.69 352.975 1264.4 354.604C1263.12 356.199 1262.48 358.417 1262.48 361.26C1262.48 364.103 1263.12 366.339 1264.4 367.968C1265.69 369.563 1267.46 370.36 1269.71 370.36ZM1309 348.52V374H1304.84L1304.32 371.192C1303.49 372.336 1302.5 373.185 1301.36 373.74C1300.25 374.26 1298.88 374.52 1297.25 374.52C1294.2 374.52 1291.86 373.601 1290.23 371.764C1288.64 369.892 1287.84 367.084 1287.84 363.34V348.52H1292.52V362.04C1292.52 364.813 1292.99 366.893 1293.92 368.28C1294.89 369.667 1296.4 370.36 1298.45 370.36C1299.66 370.36 1300.79 370.117 1301.83 369.632C1302.9 369.147 1303.73 368.436 1304.32 367.5V348.52H1309ZM1315.37 337.6H1320.05V342.8H1315.37V337.6ZM1315.37 348.52H1320.05V374H1315.37V348.52ZM1335.17 374.52C1332.92 374.52 1331.24 373.931 1330.13 372.752C1329.06 371.573 1328.52 370.135 1328.52 368.436V352.16H1324.15L1324.57 348.52H1328.52V342.228L1333.2 341.76V348.52H1339.91V352.16H1333.2V365.576C1333.2 367.344 1333.3 368.557 1333.51 369.216C1333.72 369.875 1334.15 370.308 1334.81 370.516C1335.5 370.689 1336.75 370.776 1338.55 370.776H1339.75L1339.39 374.52H1335.17ZM1351.71 372.856L1341.1 348.52H1346.3L1354.25 367.448L1361.43 348.52H1366.63L1351.03 386.584H1345.83L1351.71 372.856Z" fill="black"/>
<path d="M334.16 627.6H347.628C351.164 627.6 354.301 628.328 357.04 629.784C359.779 631.205 361.911 633.303 363.436 636.076C364.961 638.815 365.724 642.056 365.724 645.8C365.724 649.544 364.961 652.803 363.436 655.576C361.911 658.315 359.779 660.412 357.04 661.868C354.301 663.289 351.164 664 347.628 664H334.16V627.6ZM347.628 659.528C351.684 659.528 354.804 658.297 356.988 655.836C359.207 653.34 360.316 649.995 360.316 645.8C360.316 641.605 359.207 638.277 356.988 635.816C354.804 633.32 351.684 632.072 347.628 632.072H339.1V659.528H347.628ZM370.598 627.6H375.278V632.8H370.598V627.6ZM370.598 638.52H375.278V664H370.598V638.52ZM378.913 638.52H384.113L391.237 658.852L398.309 638.52H403.561L393.889 664H388.637L378.913 638.52ZM418.974 664.52C416.062 664.52 413.566 663.931 411.486 662.752C409.441 661.539 407.881 659.909 406.806 657.864C405.731 655.819 405.194 653.548 405.194 651.052C405.194 648.66 405.679 646.476 406.65 644.5C407.655 642.489 409.094 640.912 410.966 639.768C412.873 638.589 415.109 638 417.674 638C420.933 638 423.567 638.953 425.578 640.86C427.623 642.767 428.646 645.401 428.646 648.764C428.646 649.631 428.577 650.463 428.438 651.26H409.978C410.29 654.553 411.295 656.893 412.994 658.28C414.693 659.667 416.877 660.36 419.546 660.36C422.215 660.36 424.659 659.857 426.878 658.852L427.502 662.544C424.555 663.861 421.713 664.52 418.974 664.52ZM423.81 648.036C423.81 646.199 423.29 644.76 422.25 643.72C421.21 642.68 419.65 642.16 417.57 642.16C415.559 642.16 413.982 642.663 412.838 643.668C411.694 644.639 410.879 646.095 410.394 648.036H423.81ZM433.363 638.52H437.211L437.783 642.732C439.101 641.103 440.349 639.907 441.527 639.144C442.741 638.381 444.006 638 445.323 638C445.739 638 446.138 638.052 446.519 638.156L446.051 643.304C445.601 643.2 445.081 643.148 444.491 643.148C443.209 643.148 441.995 643.443 440.851 644.032C439.707 644.587 438.875 645.245 438.355 646.008V664H433.363V638.52ZM457.045 664.52C455.034 664.52 453.266 664.295 451.741 663.844C450.25 663.359 449.106 662.839 448.309 662.284L448.881 657.76C449.574 658.384 450.631 658.973 452.053 659.528C453.509 660.083 455.103 660.36 456.837 660.36C458.466 660.36 459.714 660.083 460.581 659.528C461.482 658.973 461.933 658.193 461.933 657.188C461.933 656.009 461.447 655.125 460.477 654.536C459.506 653.912 458.293 653.392 456.837 652.976C455.242 652.56 453.89 652.127 452.781 651.676C451.706 651.191 450.77 650.463 449.973 649.492C449.21 648.521 448.829 647.239 448.829 645.644C448.829 643.46 449.609 641.64 451.169 640.184C452.729 638.728 455.138 638 458.397 638C459.887 638 461.153 638.156 462.193 638.468C463.233 638.745 464.273 639.144 465.313 639.664L464.741 643.928C463.909 643.235 462.99 642.697 461.985 642.316C460.979 641.9 459.818 641.692 458.501 641.692C456.975 641.692 455.762 641.987 454.861 642.576C453.994 643.131 453.561 643.98 453.561 645.124C453.561 645.887 453.769 646.511 454.185 646.996C454.601 647.447 455.19 647.828 455.953 648.14C456.715 648.452 457.894 648.851 459.489 649.336C461.465 649.925 463.163 650.757 464.585 651.832C466.041 652.907 466.769 654.605 466.769 656.928C466.769 659.008 466.023 660.793 464.533 662.284C463.077 663.775 460.581 664.52 457.045 664.52ZM471.348 627.6H476.028V632.8H471.348V627.6ZM471.348 638.52H476.028V664H471.348V638.52ZM491.155 664.52C488.902 664.52 487.221 663.931 486.111 662.752C485.037 661.573 484.499 660.135 484.499 658.436V642.16H480.131L480.547 638.52H484.499V632.228L489.179 631.76V638.52H495.887V642.16H489.179V655.576C489.179 657.344 489.283 658.557 489.491 659.216C489.699 659.875 490.133 660.308 490.791 660.516C491.485 660.689 492.733 660.776 494.535 660.776H495.731L495.367 664.52H491.155ZM507.687 662.856L497.079 638.52H502.279L510.235 657.448L517.411 638.52H522.611L507.011 676.584H501.811L507.687 662.856Z" fill="black"/>
<path d="M39.16 55.6H44.1V92H39.16V55.6ZM63.5529 66C70.4862 66 73.9529 69.9867 73.9529 77.96V92H69.2729V77.96C69.2729 75.2213 68.7529 73.2453 67.7129 72.032C66.7075 70.784 65.0089 70.16 62.6169 70.16C61.0915 70.16 59.7049 70.4373 58.4569 70.992C57.2089 71.5467 56.2729 72.3787 55.6489 73.488V92H50.9689V66.52H54.6089L55.1289 69.224C56.4809 68.0107 57.8329 67.1787 59.1849 66.728C60.5715 66.2427 62.0275 66 63.5529 66ZM91.7158 92.52C88.9424 92.52 86.5504 91.948 84.5398 90.804C82.5638 89.66 81.0731 88.1 80.0678 86.124C79.0624 84.1133 78.5597 81.8773 78.5597 79.416C78.5597 75.3947 79.6864 72.1533 81.9398 69.692C84.2278 67.2307 87.6078 66 92.0798 66C94.7144 66 97.0371 66.5027 99.0478 67.508L98.3198 71.616C96.2051 70.6453 94.0904 70.16 91.9758 70.16C89.2024 70.16 87.0704 70.9573 85.5798 72.552C84.0891 74.112 83.3438 76.3307 83.3438 79.208C83.3438 82.0853 84.0544 84.3387 85.4758 85.968C86.9318 87.5973 89.0638 88.412 91.8718 88.412C94.1251 88.412 96.2918 87.892 98.3718 86.852L98.9958 90.596C98.2331 91.116 97.1758 91.5667 95.8238 91.948C94.5064 92.3293 93.1371 92.52 91.7158 92.52ZM110.181 92.52C107.893 92.52 106.212 91.9307 105.137 90.752C104.097 89.5733 103.577 88.1173 103.577 86.384V53H108.257V83.68C108.257 85.2053 108.344 86.3147 108.517 87.008C108.725 87.7013 109.106 88.1693 109.661 88.412C110.216 88.6547 111.117 88.776 112.365 88.776L111.689 92.52H110.181ZM136.822 66.52V92H132.662L132.142 89.192C131.31 90.336 130.322 91.1853 129.178 91.74C128.069 92.26 126.699 92.52 125.07 92.52C122.019 92.52 119.679 91.6013 118.05 89.764C116.455 87.892 115.658 85.084 115.658 81.34V66.52H120.338V80.04C120.338 82.8133 120.806 84.8933 121.742 86.28C122.713 87.6667 124.221 88.36 126.266 88.36C127.479 88.36 128.606 88.1173 129.646 87.632C130.721 87.1467 131.553 86.436 132.142 85.5V66.52H136.822ZM150.416 92.52C148.405 92.52 146.637 92.2947 145.112 91.844C143.621 91.3587 142.477 90.8387 141.68 90.284L142.252 85.76C142.945 86.384 144.002 86.9733 145.424 87.528C146.88 88.0827 148.474 88.36 150.208 88.36C151.837 88.36 153.085 88.0827 153.952 87.528C154.853 86.9733 155.304 86.1933 155.304 85.188C155.304 84.0093 154.818 83.1253 153.848 82.536C152.877 81.912 151.664 81.392 150.208 80.976C148.613 80.56 147.261 80.1267 146.152 79.676C145.077 79.1907 144.141 78.4627 143.344 77.492C142.581 76.5213 142.2 75.2387 142.2 73.644C142.2 71.46 142.98 69.64 144.54 68.184C146.1 66.728 148.509 66 151.768 66C153.258 66 154.524 66.156 155.564 66.468C156.604 66.7453 157.644 67.144 158.684 67.664L158.112 71.928C157.28 71.2347 156.361 70.6973 155.356 70.316C154.35 69.9 153.189 69.692 151.872 69.692C150.346 69.692 149.133 69.9867 148.232 70.576C147.365 71.1307 146.932 71.98 146.932 73.124C146.932 73.8867 147.14 74.5107 147.556 74.996C147.972 75.4467 148.561 75.828 149.324 76.14C150.086 76.452 151.265 76.8507 152.86 77.336C154.836 77.9253 156.534 78.7573 157.956 79.832C159.412 80.9067 160.14 82.6053 160.14 84.928C160.14 87.008 159.394 88.7933 157.904 90.284C156.448 91.7747 153.952 92.52 150.416 92.52ZM164.719 55.6H169.399V60.8H164.719V55.6ZM164.719 66.52H169.399V92H164.719V66.52ZM186.866 92.52C184.266 92.52 182.013 91.948 180.106 90.804C178.2 89.6253 176.744 88.0307 175.738 86.02C174.733 84.0093 174.23 81.756 174.23 79.26C174.23 76.764 174.733 74.5107 175.738 72.5C176.744 70.4893 178.2 68.912 180.106 67.768C182.013 66.5893 184.266 66 186.866 66C189.432 66 191.668 66.5893 193.574 67.768C195.516 68.912 196.989 70.4893 197.994 72.5C199 74.5107 199.502 76.764 199.502 79.26C199.502 81.756 199 84.0093 197.994 86.02C196.989 88.0307 195.516 89.6253 193.574 90.804C191.668 91.948 189.432 92.52 186.866 92.52ZM186.866 88.36C189.362 88.36 191.286 87.5627 192.638 85.968C194.025 84.3733 194.718 82.1373 194.718 79.26C194.718 76.3827 194.025 74.1467 192.638 72.552C191.286 70.9573 189.362 70.16 186.866 70.16C184.37 70.16 182.429 70.9573 181.042 72.552C179.69 74.1467 179.014 76.3827 179.014 79.26C179.014 82.1373 179.69 84.3733 181.042 85.968C182.429 87.5627 184.37 88.36 186.866 88.36ZM216.912 66C223.846 66 227.312 69.9867 227.312 77.96V92H222.632V77.96C222.632 75.2213 222.112 73.2453 221.072 72.032C220.067 70.784 218.368 70.16 215.976 70.16C214.451 70.16 213.064 70.4373 211.816 70.992C210.568 71.5467 209.632 72.3787 209.008 73.488V92H204.328V66.52H207.968L208.488 69.224C209.84 68.0107 211.192 67.1787 212.544 66.728C213.931 66.2427 215.387 66 216.912 66Z" fill="black"/>
</svg>
